Coordinates
version=1
nRows=19
nColumns=24
inDegrees=yes

Units are S.I. units (second, meters, Newtons, ...)
Angles are in degrees.

endheader
time	pelvis_tilt	pelvis_list	pelvis_rotation	pelvis_tx	pelvis_ty	pelvis_tz	hip_flexion_r	hip_adduction_r	hip_rotation_r	knee_angle_r	ankle_angle_r	subtalar_angle_r	mtp_angle_r	hip_flexion_l	hip_adduction_l	hip_rotation_l	knee_angle_l	ankle_angle_l	subtalar_angle_l	mtp_angle_l	lumbar_extension	lumbar_bending	lumbar_rotation
      1.07966667	      3.43907206	      5.02086716	     -3.49943477	      0.15492392	      0.90949621	      0.31117806	     11.24560125	     -8.40351494	     -5.62314554	    -77.06325037	      5.53129688	     12.50905515	      7.62419189	      7.37047272	      8.29548821	     -5.52402884	    -23.18912333	     13.73109331	     -5.65244922	      5.52943771	    -11.80092688	     -8.25127038	      3.48732562
      1.08383333	      3.40468976	      4.76093846	     -3.40008398	      0.16014002	      0.91085183	      0.31105087	     11.99976263	     -8.02033373	     -5.63077824	    -77.00107590	      5.87488891	     12.17439908	      7.58837544	      6.71279778	      8.09847605	     -5.21980933	    -22.58078647	     13.69817068	     -5.76592654	      5.51237417	    -11.81638914	     -7.93158966	      3.35622760
      1.08800000	      3.37906768	      4.53258630	     -3.29031183	      0.16537794	      0.91220628	      0.31085565	     12.72770815	     -7.69329897	     -5.66286389	    -76.87179315	      6.16946330	     11.88258974	      7.47399731	      6.00788427	      7.96189003	     -4.80111646	    -21.87832620	     13.58974673	     -6.07337765	      5.45611903	    -11.82277891	     -7.64559735	      3.11564169
      1.09216667	      3.35248754	      4.25147199	     -3.17649465	      0.17060153	      0.91354068	      0.31071221	     13.42720212	     -7.28597807	     -5.69955012	    -76.64923925	      6.46138372	     11.51946173	      7.41348475	      5.33640484	      7.73394699	     -4.49439284	    -21.25683669	     13.56555777	     -6.17228422	      5.42302418	    -11.84073867	     -7.30488149	      3.00534009
      1.09633333	      3.33291808	      3.97866144	     -3.05255131	      0.17582808	      0.91485760	      0.31054520	     14.09917586	     -6.89427879	     -5.75319566	    -76.35951307	      6.75392051	     11.15424580	      7.34835021	      4.64688778	      7.51702058	     -4.16633924	    -20.60214741	     13.49885657	     -6.32432253	      5.38398394	    -11.86617596	     -6.96504675	      2.85286986
      1.10050000	      3.31448069	      3.73151571	     -2.92794793	      0.18105541	      0.91612852	      0.31034763	     14.75802194	     -6.54622160	     -5.81925863	    -76.01674949	      7.07615312	     10.81184026	      7.22573947	      3.94273213	      7.33471257	     -3.80186773	    -19.90622165	     13.36064807	     -6.56109939	      5.30905500	    -11.89338359	     -6.65431997	      2.64896318
      1.10466667	      3.28806678	      3.43341115	     -2.79389916	      0.18625249	      0.91736213	      0.31018750	     15.39640747	     -6.12331097	     -5.89361190	    -75.58344943	      7.37075200	     10.41620229	      7.17823730	      3.28400832	      7.06728994	     -3.54131139	    -19.29218858	     13.30843812	     -6.61882033	      5.27981697	    -11.91962374	     -6.27751995	      2.55916135
      1.10883333	      3.29778533	      3.15632008	     -2.65148022	      0.19149098	      0.91862998	      0.30998344	     15.96729190	     -5.74503026	     -5.99478078	    -75.06992421	      7.56444746	      9.98918733	      7.09844561	      2.54823039	      6.83694591	     -3.20506883	    -18.59249146	     13.23653750	     -6.78985861	      5.23408045	    -11.96528249	     -5.93105186	      2.38020901
      1.11300000	      3.30001312	      2.87937241	     -2.50769270	      0.19669085	      0.91981717	      0.30979871	     16.53842627	     -5.36757921	     -6.10196529	    -74.51417793	      7.80565832	      9.56880132	      7.01048571	      1.83294771	      6.59589082	     -2.89033460	    -17.90718443	     13.12681979	     -6.95293045	      5.18497546	    -12.01436450	     -5.58147518	      2.21132624
      1.11716667	      3.30677345	      2.60272375	     -2.35622529	      0.20188552	      0.92097225	      0.30959789	     17.08004363	     -4.99468450	     -6.21987586	    -73.88478313	      8.02697397	      9.13410467	      6.91401737	      1.11577861	      6.34952623	     -2.58732372	    -17.22048639	     13.01543398	     -7.10800735	      5.13453025	    -12.06885992	     -5.23120723	      2.03936920
      1.12133333	      3.31836539	      2.33065158	     -2.20407505	      0.20706771	      0.92208201	      0.30940618	     17.59897303	     -4.63026175	     -6.34405259	    -73.19445538	      8.22567680	      8.67846320	      6.80274304	      0.39412714	      6.10192341	     -2.29324699	    -16.52650777	     12.89830365	     -7.26427220	      5.08074775	    -12.12371623	     -4.88558826	      1.86408552
      1.12550000	      3.33498742	      2.05766262	     -2.04537998	      0.21223158	      0.92314195	      0.30921436	     18.09288664	     -4.26896806	     -6.48014894	    -72.44250667	      8.40826947	      8.20902751	      6.68591059	     -0.32510730	      5.84507610	     -2.01594235	    -15.84135981	     12.78110150	     -7.39955114	      5.02836906	    -12.18857017	     -4.53754243	      1.68938917
      1.12966667	      3.35654146	      1.78848333	     -1.88438914	      0.21737773	      0.92415130	      0.30903065	     18.56279986	     -3.91498379	     -6.62236022	    -71.63043446	      8.56551342	      7.72215082	      6.56100834	     -1.04455638	      5.58461023	     -1.75495968	    -15.15845253	     12.66081185	     -7.52683754	      4.97716707	    -12.25873729	     -4.19253526	      1.51033316
      1.13383333	      3.38381807	      1.52517111	     -1.72206821	      0.22250970	      0.92510653	      0.30884800	     19.00846380	     -3.57057729	     -6.76756369	    -70.76131415	      8.69742567	      7.22077712	      6.42040370	     -1.76869807	      5.32608696	     -1.49551153	    -14.47156089	     12.54178186	     -7.64929190	      4.92435155	    -12.33659190	     -3.85593326	      1.32296260
      1.13800000	      3.41313635	      1.26681562	     -1.55725952	      0.22761650	      0.92599622	      0.30868979	     19.43523865	     -3.23207389	     -6.91760913	    -69.83582150	      8.80449768	      6.70399827	      6.27330193	     -2.48577113	      5.06301647	     -1.25467666	    -13.79476597	     12.42456558	     -7.75571729	      4.87413051	    -12.41636532	     -3.52817002	      1.13419495
      1.14216667	      3.44810497	      1.01250618	     -1.38959360	      0.23271374	      0.92682919	      0.30853897	     19.83477686	     -2.89988452	     -7.07177460	    -68.85179275	      8.88566258	      6.16676471	      6.11223577	     -3.20311185	      4.79746438	     -1.02524468	    -13.12485660	     12.30806765	     -7.85468706	      4.82386097	    -12.50423711	     -3.20567025	      0.93862341
      1.14633333	      3.49013210	      0.79528226	     -1.21603581	      0.23778897	      0.92758906	      0.30836884	     20.21516225	     -2.61999643	     -7.22931360	    -67.83642938	      9.01421554	      5.65752320	      5.72619455	     -3.94095549	      4.57649379	     -0.72825401	    -12.41443595	     12.11382303	     -8.06974805	      4.71231837	    -12.60416872	     -2.93928348	      0.64951653
      1.15050000	      3.50763443	      0.53149376	     -1.04926031	      0.24284746	      0.92826390	      0.30827085	     20.59386103	     -2.26979656	     -7.38193516	    -66.73003823	      9.01536869	      5.09572328	      5.58831915	     -4.59954082	      4.27617115	     -0.60443342	    -11.81693596	     12.05750441	     -8.04046170	      4.67785310	    -12.65659333	     -2.61167189	      0.53888867
      1.15466667	      3.55058807	      0.30041082	     -0.88554588	      0.24789457	      0.92888376	      0.30817055	     20.93265771	     -1.96248068	     -7.52968415	    -65.59077509	      9.02136339	      4.51233103	      5.43611368	     -5.29850429	      4.01213900	     -0.45254093	    -11.18552272	     11.97263078	     -8.04235573	      4.64311589	    -12.75213646	     -2.31822037	      0.35113445
